<svg xmlns="http://www.w3.org/2000/svg" viewBox="0 0 45.63 47.78"><g id="Capa_2" data-name="Capa 2"><g id="Capa_1-2" data-name="Capa 1"><path d="M21.62,11.7l10.32-1.37c2.22-.29,4.43-.62,6.66-.86a3.9,3.9,0,0,1,4.56,3.67c.05.44.13.87.18,1.31a3.92,3.92,0,0,1-3.28,4.43,32.65,32.65,0,0,0-4.26.83c1.06.11,2.12.23,3.18.33s2,.13,3,.27a5.14,5.14,0,0,1,1.59.48c1.93,1,2.57,3.48,1.69,6.3a4,4,0,0,1-4.31,2.72c-2.66-.23-5.32-.48-8.06-.48.55.24,1.09.48,1.65.7,1.63.66,3.27,1.29,4.89,2a3.92,3.92,0,0,1,2.29,5.39c-.13.34-.28.67-.41,1a4,4,0,0,1-5.62,2.41c-1.75-.69-3.49-1.4-5.23-2.1l-1.19-.43c.11.2.13.29.19.33,3.92,2.78,2.07,6.11-.59,8.3-1.52,1.26-3.3,1.13-5-.15-4.1-3.18-8.18-6.4-12.32-9.54a4.31,4.31,0,0,0-2.26-.77c-1.92-.11-3.84,0-5.76,0A3.28,3.28,0,0,1,0,32.89q0-9.3,0-18.6a3.29,3.29,0,0,1,3.44-3.5c1.6-.06,3.2,0,4.8,0a2.17,2.17,0,0,0,1.32-.57Q13.71,6,17.75,1.73C19,.4,20.47-.41,22.24.22a5.85,5.85,0,0,1,3.81,4A3.55,3.55,0,0,1,25,7.86c-1.2,1.15-2.47,2.24-3.71,3.36ZM2.31,23.54c0,3,0,5.92,0,8.88,0,1.5.21,1.72,1.75,1.73,1.88,0,3.76.07,5.64,0a4.3,4.3,0,0,1,3.05,1c4.17,3.31,8.39,6.53,12.58,9.82a1.65,1.65,0,0,0,2.36-.06c1.48-1.28,2-2.55,1.45-3.47a3,3,0,0,0-.66-.68c-.65-.54-1.31-1.05-2-1.57l-5-4c-.59-.46-1.16-1-.65-1.79s1.21-.59,1.91-.28a5.42,5.42,0,0,0,.56.22q6.51,2.61,13,5.22c1.59.64,2.22.35,2.88-1.24.1-.22.19-.44.27-.67.52-1.38.23-2.1-1.12-2.66s-2.89-1.17-4.34-1.75c-3.26-1.3-6.54-2.58-9.77-4-.45-.19-.66-.92-1-1.4a10.72,10.72,0,0,1,1.52-.83c.27-.11.63,0,1,.07,5,.44,10,.9,15,1.32,1.69.14,2.22-.38,2.36-2.08.17-2.21-.18-2.74-2-2.91-2.07-.2-4.14-.36-6.21-.55L24.37,21c-.74-.06-1.35-.42-1.22-1.15.08-.44.71-.8,1.13-1.15.13-.11.39-.06.58-.09q7.2-.95,14.38-1.92c1.47-.19,1.92-.78,1.79-2.26,0-.4-.1-.79-.18-1.19a1.69,1.69,0,0,0-2.13-1.53c-6.34.84-12.68,1.68-19,2.57a1.58,1.58,0,0,0-1,.87,20.61,20.61,0,0,0-1.35,4.46c-.43,3.59-2.45,5.17-5.9,5.26a.53.53,0,0,0-.12,0c-.81.25-1.49.08-1.68-.8s.45-1.26,1.24-1.42a15.57,15.57,0,0,0,2.45-.57,2,2,0,0,0,1.09-1c.81-2.43,1.49-4.89,2.29-7.32A4.93,4.93,0,0,1,17.78,12c1.66-1.78,3.4-3.49,5.1-5.25,1.42-1.47,1.37-2.06-.28-3.64C21.39,2,20.69,2,19.39,3.34c-2.55,2.65-5.11,5.29-7.65,8a9.82,9.82,0,0,1-.75.91A3.49,3.49,0,0,1,9.45,13c-1.84.1-3.68,0-5.52,0-1.39,0-1.62.23-1.62,1.6C2.3,17.63,2.31,20.59,2.31,23.54Z"/></g></g></svg>