<svg xmlns="http://www.w3.org/2000/svg" viewBox="0 0 45.55 47.76"><g id="Capa_2" data-name="Capa 2"><g id="Capa_1-2" data-name="Capa 1"><path d="M16.15,38.29,10.3,40.65c-3.77,1.5-7.24-1.16-6.82-5.25A3.89,3.89,0,0,1,6.14,32a68.71,68.71,0,0,0,6.49-2.88l-4.3.34c-1.19.1-2.39.23-3.58.34A4,4,0,0,1,.11,26.08,15.79,15.79,0,0,1,0,24.4a3.86,3.86,0,0,1,3.67-4.09c2-.2,4.06-.37,6.12-.78-1-.14-2-.27-2.94-.43a12.66,12.66,0,0,1-2.22-.45c-2.17-.82-2.87-2.91-2.15-6.13a3.8,3.8,0,0,1,4.14-3c3,.31,6,.75,8.92,1.14l7.6,1c.26,0,.53,0,1,0C23,10.39,21.89,9.29,20.83,8.18c-2-2-2-4.18,0-6.21C23.43-.66,25.42-.66,28,2s5.2,5.43,7.85,8.09a2.67,2.67,0,0,0,1.63.69c1.47.1,3,0,4.43,0a3.34,3.34,0,0,1,3.63,3.57q0,9.3,0,18.59A3.29,3.29,0,0,1,42,36.41c-2,0-4.07,0-6.11,0a3.17,3.17,0,0,0-1.73.6c-4.19,3.2-8.34,6.45-12.51,9.69A3.93,3.93,0,0,1,16,46.34a13.46,13.46,0,0,1-1.54-2,3.9,3.9,0,0,1,.67-4.93c.35-.32.73-.61,1.1-.92Zm27.1-14.62c0-2.88,0-5.75,0-8.63,0-1.79-.15-1.95-1.89-1.95s-3.52,0-5.28,0a2.06,2.06,0,0,1-1.35-.54c-3.06-3.2-6-6.46-9.11-9.66a1.55,1.55,0,0,0-2.44,0c-.31.31-.63.61-.93.93a1.63,1.63,0,0,0,0,2.54,21.76,21.76,0,0,0,2.19,2.21,15.86,15.86,0,0,1,5.9,10.19c.39,2.49,1.59,3.93,4.22,3.94a1.55,1.55,0,0,1,.35.07c.72.17,1.18.6,1,1.36s-.78,1-1.57.84c-1.2-.28-2.41-.58-3.63-.77a1.76,1.76,0,0,1-1.53-1.44c-.72-2.5-1.51-5-2.24-7.46a1.23,1.23,0,0,0-1.2-1c-6.23-.79-12.45-1.64-18.66-2.47-1.56-.21-2.24.28-2.46,1.83-.32,2.28,0,2.9,1.8,3.13q7.18,1,14.38,1.91c.78.11,1.61.2,1.6,1.23s-.8,1.11-1.61,1.18c-5.45.47-10.91.93-16.36,1.48-.68.06-1.78.49-1.87.91a7.3,7.3,0,0,0,.19,3.35c.3.92,1.36.78,2.21.71,5-.45,10-.91,15.05-1.34.85-.08,1.91-.42,2.2.79s-.83,1.38-1.61,1.69C16.18,30.44,11.75,32.17,7.37,34c-.62.26-1.54,1-1.49,1.44a6.79,6.79,0,0,0,1.2,3.12c.61.82,1.61.28,2.43-.05,4.41-1.78,8.82-3.57,13.24-5.3a2.16,2.16,0,0,1,1.56-.05c.79.36.65,1.31-.25,2-2.33,1.88-4.69,3.74-7,5.62a1.71,1.71,0,0,0-.35,2.78q.36.48.75.93c1,1.18,1.75,1.26,3,.31,4.26-3.31,8.51-6.64,12.8-9.9a3.88,3.88,0,0,1,2-.72c2.12-.09,4.24,0,6.36,0,1.31,0,1.63-.33,1.64-1.62C43.26,29.59,43.25,26.63,43.25,23.67Z"/></g></g></svg>