<svg xmlns="http://www.w3.org/2000/svg" viewBox="0 0 34.56 34.14"><g id="Capa_2" data-name="Capa 2"><g id="Capa_1-2" data-name="Capa 1"><path d="M4.47,27.09a5.9,5.9,0,0,1-2.42-6.7,1.19,1.19,0,0,0-.12-.92C-.34,17-.58,14.27,1.05,11.91A43.88,43.88,0,0,1,.34,7.47a3.85,3.85,0,0,1,3.8-4.22c1.68-.12,3.36-.14,5-.32a2.06,2.06,0,0,0,1.3-.73,5.75,5.75,0,0,1,7-1.63,12.25,12.25,0,0,1,1.87,1.07A13.31,13.31,0,0,0,29.71,4.41a9.69,9.69,0,0,1,1.32,0,3.25,3.25,0,0,1,3.49,3.32q.07,10,0,19.92a3.22,3.22,0,0,1-3.2,3.24h-.48c-3.05.2-6.08-.28-9.15,1-2.61,1-5.63,1.08-8.46,1.57-1.27.22-2.52.45-3.79.65a3.88,3.88,0,0,1-4.62-3.14A15,15,0,0,1,4.48,29C4.42,28.46,4.47,27.86,4.47,27.09Zm20.6,1.55c1.95,0,3.83,0,5.7,0,1.08,0,1.5-.49,1.5-1.54q0-9.46,0-18.94c0-1.08-.48-1.5-1.53-1.49-2.16,0-4.32,0-6.47,0a3.8,3.8,0,0,1-1.68-.45C20.46,5,18.37,3.77,16.27,2.52c-1.31-.78-2.43,0-3.45.55s-.68,1.55-.37,2.48c1.22,3.59,2.39,7.2,3.6,10.79.56,1.66,1.18,1.85,3.33,1.11,1.53-.52,1.89-1.21,1.4-2.72q-1.05-3.18-2.11-6.36c-.26-.78-.4-1.58.56-1.91s1.33.37,1.59,1.16c.78,2.39,1.54,4.78,2.38,7.15a1.56,1.56,0,0,0,.92.86,28.7,28.7,0,0,0,2.92.66c.81.17,1.54.48,1.31,1.48s-1.07.9-1.84.75-1.79-.41-2.69-.6c-1.4-.3-1.87.18-1.71,1.64.13,1.06.19,2.12.29,3.28C24.8,23.91,24.7,26.31,25.07,28.64ZM22.68,28c-.09-.55-.16-1.19-.31-1.81a1.61,1.61,0,0,0-2-1.33q-6.15,1-12.28,2.11a1.59,1.59,0,0,0-1.37,1.92A11.38,11.38,0,0,0,7,30.26c.26,1.25.84,1.74,2.12,1.53,4.06-.65,8.1-1.37,12.15-2.08A1.63,1.63,0,0,0,22.68,28Zm-2.86-8.19c-2.51.66-2.76.61-4.89-.74a1.58,1.58,0,0,0-1-.2c-2.77.39-5.53.79-8.29,1.25a1.66,1.66,0,0,0-1.48,2.07,11.17,11.17,0,0,0,.22,1.41A1.71,1.71,0,0,0,6.7,25c.54-.13,1.08-.29,1.63-.38,3.53-.62,7.07-1.25,10.61-1.83.8-.13,1.14-.53,1.1-1.27A17.08,17.08,0,0,0,19.82,19.76Zm-6.13-3.2c-.5-1.54-.93-2.94-1.44-4.31a1,1,0,0,0-.82-.41c-2.57.34-5.13.73-7.69,1.13a1.53,1.53,0,0,0-1.4,1.67,9.05,9.05,0,0,0,.31,2,1.45,1.45,0,0,0,1.67,1.23C7.39,17.47,10.46,17,13.69,16.56Zm-2.33-7c-.44-1.34-.77-2.49-1.21-3.6a1.26,1.26,0,0,0-.88-.65c-1.72,0-3.43.16-5.14.3A1.59,1.59,0,0,0,2.58,7.23c-.14,1.94.29,3,1.33,3.25a1.06,1.06,0,0,0,.35,0Z"/></g></g></svg>