<svg xmlns="http://www.w3.org/2000/svg" viewBox="0 0 34.55 34.16"><g id="Capa_2" data-name="Capa 2"><g id="Capa_1-2" data-name="Capa 1"><path d="M33.48,11.84c1.78,1.68,1.23,6.29-.85,7.71-.09,1.68-.08,3.14-.29,4.56a3.16,3.16,0,0,1-1,2A2.8,2.8,0,0,0,30,29a6.28,6.28,0,0,1-.28,1.89,3.91,3.91,0,0,1-4.6,3.2C21.09,33.42,17,32.7,13,32a1.34,1.34,0,0,1-.57-.15c-2-1.39-4.3-.84-6.49-.93-.92,0-1.84,0-2.76,0A3.15,3.15,0,0,1,0,27.72q-.06-10,0-20A3.23,3.23,0,0,1,3.35,4.43c2.43,0,5,.42,7.27-.21S14.85,1.87,17,.66a5.67,5.67,0,0,1,7.14,1.6A2,2,0,0,0,25.32,3c1.63.16,3.27.21,4.91.31a3.94,3.94,0,0,1,4,4.52C34.11,9.06,33.76,10.31,33.48,11.84ZM9.5,28.66c0-.3.07-.45.09-.6.22-2,.34-4,2.43-5.17a.66.66,0,0,0,.24-.48c.09-1.07.16-2.14.22-3.21A1.15,1.15,0,0,0,11,17.88c-1,.19-2,.45-3,.66-.73.15-1.52.24-1.75-.71s.4-1.35,1.24-1.51a31.12,31.12,0,0,0,3-.69,1.43,1.43,0,0,0,.82-.8c.83-2.38,1.6-4.77,2.39-7.16.25-.76.57-1.52,1.57-1.2s.88,1.07.61,1.87q-1.08,3.18-2.12,6.37c-.52,1.61-.16,2.24,1.59,2.82,2,.66,2.59.43,3.16-1.26Q20.31,11,22.05,5.7c.31-.92.65-1.85-.3-2.63a3.64,3.64,0,0,0-3.57-.47c-2,1.18-4,2.41-6.11,3.55a4.36,4.36,0,0,1-1.9.52c-2.15.06-4.31,0-6.47,0-.86,0-1.38.31-1.38,1.25q0,9.7,0,19.42c0,.83.39,1.29,1.22,1.29C5.48,28.67,7.44,28.66,9.5,28.66Zm4.67-3.85a1.66,1.66,0,0,0-2,1.4,13.22,13.22,0,0,0-.28,1.65,1.53,1.53,0,0,0,1.32,1.84q6.18,1.11,12.39,2.13a1.6,1.6,0,0,0,1.92-1.39,15.27,15.27,0,0,0,.27-1.53,1.59,1.59,0,0,0-1.32-2C22.35,26.2,18.22,25.51,14.17,24.81Zm.67-5c-.56,1.86-.88,2.81,1.79,3.18,3.79.53,7.55,1.34,11.31,2a1.75,1.75,0,0,0,2.24-1.42c.08-.39.1-.79.17-1.18A1.78,1.78,0,0,0,28.67,20c-2.61-.41-5.21-.81-7.82-1.18-.38-.06-.92-.11-1.14.09A4.28,4.28,0,0,1,14.84,19.78Zm6-3.22c3.22.46,6.29.92,9.37,1.32a1.48,1.48,0,0,0,1.71-1.32,11.46,11.46,0,0,0,.25-1.66,1.61,1.61,0,0,0-1.47-2c-2.49-.38-5-.76-7.47-1.09a1.09,1.09,0,0,0-.92.41C21.78,13.63,21.35,15,20.84,16.56Zm2.33-7c2.45.35,4.76.74,7.09,1,.91.1,1.45-.57,1.6-1.46A11.42,11.42,0,0,0,32,7.51,1.66,1.66,0,0,0,30.2,5.57c-1.59-.13-3.19-.17-4.78-.33-.66-.06-.91.18-1.09.77C24,7.12,23.62,8.2,23.17,9.53Z"/></g></g></svg>