<svg xmlns="http://www.w3.org/2000/svg" viewBox="0 0 44.92 37.42"><g id="Capa_2" data-name="Capa 2"><g id="Capa_1-2" data-name="Capa 1"><path d="M30,13c.84.15,1.68.31,2.53.44,3,.49,6.07,1,9.11,1.47a3.65,3.65,0,0,1,3.27,4,13.36,13.36,0,0,1-.37,2.6,3.76,3.76,0,0,1-4.35,2.73c-3-.4-6-.9-9-1.36-.23,0-.46-.05-.73-.08,1.73,3.29.94,6-2.41,8.26.4,1.72-.48,3.16-1.31,4.56A3.77,3.77,0,0,1,21.76,37c-3.86-1.83-7.68-3.75-11.53-5.61A4.29,4.29,0,0,0,8.55,31c-1.67-.05-3.35,0-5,0A3.29,3.29,0,0,1,0,27.39Q0,17.67,0,8A3.28,3.28,0,0,1,3.46,4.47c2,0,4.08,0,6.11,0a4.09,4.09,0,0,0,1.8-.5c1.71-.94,3.38-2,5.07-3,3.4-2,6.78-.88,8.33,2.88L30.27,3C33.5,2.52,36.74,2,40,1.5a3.89,3.89,0,0,1,4.66,3.38A13.07,13.07,0,0,1,44.92,7,3.86,3.86,0,0,1,41.46,11c-3.63.59-7.27,1.14-10.9,1.71l-.57.1ZM11.23,22.87c.39-1.41.72-2.45,1-3.51a1.58,1.58,0,0,0-.12-1.14,1.22,1.22,0,0,0-1-.31c-1.1.18-2.19.46-3.28.69-.75.16-1.4.06-1.61-.79s.32-1.26,1.08-1.43c1-.24,2.12-.41,3.15-.72a1.59,1.59,0,0,0,.91-.85c.83-2.34,1.58-4.7,2.34-7,.27-.83.62-1.62,1.65-1.26s.77,1.24.5,2c-.7,2.08-1.4,4.17-2.08,6.26-.51,1.56-.12,2.19,1.67,2.78S18,18,18.51,16.36c1.19-3.56,2.36-7.13,3.55-10.69.32-1,.59-1.87-.34-2.63a3.65,3.65,0,0,0-3.57-.41c-2,1.17-4,2.39-6,3.51a4.55,4.55,0,0,1-2,.55c-2.12.07-4.24,0-6.36,0-1,0-1.5.4-1.47,1.43,0,.88,0,1.76,0,2.64q0,8.16,0,16.32c0,.72,0,1.48.94,1.53,1.62.08,3.25,0,4.85,0C8.56,25.43,9.46,23.89,11.23,22.87ZM20.57,18a19.15,19.15,0,0,0,3.69,1.46C29.49,20.36,34.74,21.12,40,22c1.5.23,2.26-.26,2.5-1.65.41-2.32.05-3.05-1.69-3.32-5.23-.82-10.47-1.65-15.71-2.44-3.65-.55-3.65-.52-4.55,3.07A2.79,2.79,0,0,0,20.57,18Zm1.94-6.38L26.14,11,40.68,8.78c1.71-.27,2.15-.91,1.87-2.63l-.09-.6c-.24-1.46-.84-2-2.29-1.76C35.09,4.56,30,5.36,24.93,6.18a1.3,1.3,0,0,0-.83.65C23.55,8.32,23.08,9.85,22.51,11.59Zm3.29,19.9a5.45,5.45,0,0,0-1.27-1.17c-3.46-1.75-7-3.43-10.42-5.14-1.49-.73-2.21-.47-3,1.07-1,2-.85,2.64.74,3.43l9.9,4.85C23.93,35.58,25.9,34.29,25.8,31.49ZM14.37,20.22c-1,1.58-.88,2.13,1.12,3.11,3.51,1.72,7,3.42,10.53,5.18A1.45,1.45,0,0,0,28.16,28a10.44,10.44,0,0,0,.76-1.49,1.65,1.65,0,0,0-.87-2.39Q23.88,22,19.68,20a2.08,2.08,0,0,0-1-.2C17.37,19.87,16.07,20,14.37,20.22Z"/></g></g></svg>