<svg xmlns="http://www.w3.org/2000/svg" viewBox="0 0 44.97 37.42"><g id="Capa_2" data-name="Capa 2"><g id="Capa_1-2" data-name="Capa 1"><path d="M16.42,30.68C13.68,29,12.78,26,14.59,22.77L7.7,23.82c-1,.15-2,.34-3,.44A3.82,3.82,0,0,1,.35,21c-.29-1.53-.79-3.14.44-4.44a5.29,5.29,0,0,1,2.52-1.6c3.52-.7,7.09-1.18,10.64-1.76a2.07,2.07,0,0,0,1-.41l-7.9-1.25c-1.26-.2-2.53-.34-3.78-.58A3.93,3.93,0,0,1,.07,6.35c.08-.52.15-1,.25-1.54A3.93,3.93,0,0,1,5.07,1.52L19.28,3.75c.27,0,.55.06,1,.1a4.65,4.65,0,0,1,3-3.35,5.14,5.14,0,0,1,5.41.58A16.58,16.58,0,0,0,41.09,4.52C43.69,4.26,45,5.73,45,8.38q0,9.42,0,18.83c0,2.41-1.32,3.91-3.69,3.7a17.73,17.73,0,0,0-10.91,2.61c-2.17,1.26-4.5,2.25-6.76,3.35s-4.56.47-5.7-1.93A45.06,45.06,0,0,1,16.42,30.68Zm20.43-2c1.43,0,2.86,0,4.29,0,1.12,0,1.56-.49,1.55-1.6q0-9.42,0-18.83c0-1.14-.51-1.57-1.6-1.55-2.08,0-4.16,0-6.24,0a4.73,4.73,0,0,1-2-.56c-1.86-1-3.71-2.06-5.47-3.23a3.22,3.22,0,0,0-3.25-.27c-1.42.56-1.81,1.23-1.34,2.67l3.66,11c.54,1.6,1.21,1.87,3.08,1.25s2.2-1.23,1.66-2.87c-.71-2.16-1.44-4.32-2.15-6.48-.23-.71-.26-1.42.56-1.71s1.34.15,1.59,1c.45,1.45,1,2.88,1.44,4.32.4,1.21.48,2.77,1.31,3.53s2.38.69,3.62,1l.12,0c.74.18,1.3.57,1.12,1.41s-.83,1-1.59.84c-1.05-.23-2.1-.51-3.16-.66a1.54,1.54,0,0,0-1.19.34c-.2.21-.11.76-.05,1.13.17.93.38,1.85.59,2.77.06.23.14.55.32.65C35.86,24.12,36.52,26.19,36.85,28.7ZM2.31,18.75c.2,2.43.44,3.68,3.37,3.12,3.68-.7,7.41-1.14,11.12-1.75a25.59,25.59,0,0,0,5.12-1.07c2.64-1,2.55-1.15,1.78-3.85-.26-.93-.67-1.18-1.61-1-2.55.45-5.12.8-7.69,1.2q-5.26.82-10.52,1.67A1.65,1.65,0,0,0,2.31,18.75Zm20.15-7.16c-.59-1.78-1.09-3.37-1.66-4.93-.09-.23-.53-.43-.84-.48Q12.51,5,5,3.83C3.18,3.54,2.72,4,2.38,6.27,2.14,7.88,2.57,8.5,4.3,8.78c4.18.68,8.37,1.32,12.55,2ZM34.67,28.13c-.43-.93-.74-1.71-1.15-2.43A1.53,1.53,0,0,0,31.38,25q-5.65,2.73-11.29,5.54a1.55,1.55,0,0,0-.75,2.23c.21.48.44.94.69,1.4a1.61,1.61,0,0,0,2.32.79c3.71-1.78,7.4-3.58,11.07-5.44C33.93,29.22,34.24,28.61,34.67,28.13Zm-4.1-7.94c-1.65-.16-2.91-.29-4.18-.4a1.6,1.6,0,0,0-.79.06c-3,1.44-6,2.88-8.92,4.38a1.44,1.44,0,0,0-.7,2c.51,1,.65,2.43,2.21,2.52a1.44,1.44,0,0,0,.65-.24l10.65-5.23C31.48,22.34,31.63,21.75,30.57,20.19Z"/></g></g></svg>